<svg width="35" height="21" viewBox="0 0 35 21" fill="none" xmlns="http://www.w3.org/2000/svg">
<path fill-rule="evenodd" clip-rule="evenodd" d="M5.27517 4.88822C7.98849 2.45924 12.1308 0 17.7531 0C23.3755 0 27.5178 2.45924 30.2311 4.88822C31.587 6.102 32.5944 7.31477 33.2646 8.22635C33.6001 8.68277 33.8525 9.06554 34.0229 9.33776C34.1081 9.47392 34.173 9.58261 34.2176 9.65923C34.2399 9.69754 34.2572 9.72785 34.2694 9.74959L34.284 9.77571L34.2885 9.78382L34.29 9.78661L34.2906 9.78769C34.2908 9.78814 34.2911 9.78855 33.4127 10.2666C34.2911 10.7446 34.2909 10.745 34.2906 10.7454L34.2885 10.7493L34.284 10.7574L34.2694 10.7835C34.2572 10.8053 34.2399 10.8356 34.2176 10.8739C34.173 10.9505 34.1081 11.0592 34.0229 11.1954C33.8525 11.4676 33.6001 11.8504 33.2646 12.3069C32.5944 13.2185 31.587 14.4314 30.2311 15.6452C27.5178 18.0744 23.3755 20.5338 17.7531 20.5338C12.1308 20.5338 7.98845 18.0744 5.27515 15.6452C3.91928 14.4314 2.91186 13.2185 2.24171 12.3069C1.90616 11.8504 1.65381 11.4676 1.48338 11.1954C1.39813 11.0592 1.33327 10.9505 1.28865 10.8739C1.26634 10.8356 1.24907 10.8053 1.23684 10.7835L1.22226 10.7574L1.21779 10.7493L1.21626 10.7465L1.21567 10.7454C1.21543 10.745 1.2152 10.7446 2.09357 10.2666C1.21522 9.78855 1.21544 9.78814 1.21569 9.78769L1.21628 9.78661L1.2178 9.78382L1.22227 9.77571L1.23686 9.74959C1.24909 9.72785 1.26635 9.69754 1.28867 9.65923C1.33329 9.58261 1.39815 9.47392 1.4834 9.33776C1.65382 9.06554 1.90618 8.68277 2.24173 8.22635C2.91189 7.31477 3.91931 6.102 5.27517 4.88822ZM2.09357 10.2666L1.21569 9.78769L0.955078 10.2666L1.21567 10.7454L2.09357 10.2666ZM3.26264 10.2666C3.40627 10.49 3.60295 10.7819 3.85315 11.1223C4.46033 11.9483 5.37721 13.0522 6.60918 14.1552C9.07153 16.3596 12.759 18.5338 17.7531 18.5338C22.7473 18.5338 26.4348 16.3596 28.8971 14.1552C30.1291 13.0522 31.0459 11.9483 31.6531 11.1223C31.9033 10.7819 32.1 10.49 32.2436 10.2666C32.1 10.0432 31.9033 9.7513 31.6532 9.41099C31.046 8.58508 30.1291 7.48122 28.8971 6.37835C26.4348 4.17404 22.7473 2 17.7531 2C12.759 2 9.0715 4.17404 6.60915 6.37835C5.37718 7.48122 4.46031 8.58508 3.85313 9.41099C3.60294 9.7513 3.40626 10.0432 3.26264 10.2666ZM33.4127 10.2666L34.2906 10.7454L34.5512 10.2666L34.2906 9.78769L33.4127 10.2666Z" fill="white"/>
<path fill-rule="evenodd" clip-rule="evenodd" d="M9.85266 9.99421C9.85266 5.63957 13.3918 2.11621 17.7531 2.11621C22.1135 2.11621 25.6542 5.63938 25.6542 9.99421C25.6542 14.3477 22.1135 17.8715 17.7531 17.8715C13.3918 17.8715 9.85266 14.3475 9.85266 9.99421ZM17.7531 4.11621C14.4903 4.11621 11.8527 6.75021 11.8527 9.99421C11.8527 13.2369 14.4903 15.8715 17.7531 15.8715C21.0154 15.8715 23.6542 13.2367 23.6542 9.99421C23.6542 6.7504 21.0154 4.11621 17.7531 4.11621Z" fill="white"/>
<path fill-rule="evenodd" clip-rule="evenodd" d="M15.961 7.65116C16.4385 7.92863 16.6007 8.54068 16.3232 9.0182C16.176 9.27153 16.0909 9.56819 16.0909 9.88854C16.0909 10.8534 16.8754 11.6395 17.8498 11.6395C18.402 11.6395 18.8498 12.0872 18.8498 12.6395C18.8498 13.1918 18.402 13.6395 17.8498 13.6395C15.7766 13.6395 14.0909 11.9637 14.0909 9.88854C14.0909 9.20868 14.2728 8.56619 14.594 8.01338C14.8714 7.53586 15.4835 7.37369 15.961 7.65116Z" fill="white"/>
</svg>
