<svg width="16" height="23" viewBox="0 0 16 23" fill="none" xmlns="http://www.w3.org/2000/svg">
<path fill-rule="evenodd" clip-rule="evenodd" d="M0.799465 7.35099C0.825547 3.28712 4.12711 0.000488281 8.19831 0.000488281C12.285 0.000488281 15.5953 3.31361 15.5953 7.39949C15.5953 7.7208 15.5708 8.02782 15.5346 8.31976C15.2413 10.9852 13.7048 12.9823 12.3319 14.7667C12.2044 14.9326 12.0782 15.0965 11.9546 15.259C10.4523 17.2339 9.19831 19.1099 9.19831 21.7975C9.19831 22.3498 8.75059 22.7975 8.19831 22.7975C7.64602 22.7975 7.19831 22.3498 7.19831 21.7975C7.19831 19.1091 5.94326 17.233 4.44 15.2574C4.31678 15.0955 4.19104 14.9321 4.06389 14.7669C2.68953 12.9809 1.15129 10.982 0.859841 8.31276C0.826973 8.04099 0.803083 7.75308 0.799594 7.4518C0.798874 7.43679 0.798309 7.41886 0.798309 7.39949C0.798309 7.38323 0.798697 7.36706 0.799465 7.35099ZM2.79929 7.41119C2.79929 7.41026 2.79928 7.40934 2.79927 7.40843C2.7993 7.40545 2.79931 7.40247 2.79931 7.39949C2.79931 4.41767 5.2157 2.00049 8.19831 2.00049C11.1796 2.00049 13.5953 4.41737 13.5953 7.39949C13.5953 7.62133 13.5782 7.84571 13.549 8.07945L13.5472 8.09509C13.3197 10.1813 12.1265 11.7414 10.6951 13.6128C10.5856 13.756 10.4747 13.901 10.3628 14.0482C9.59464 15.058 8.79935 16.1512 8.1982 17.4205C7.59651 16.1504 6.80039 15.0566 6.03161 14.0463C5.92028 13.9 5.81001 13.7559 5.70111 13.6135C4.26824 11.7406 3.07386 10.1794 2.84749 8.09074L2.846 8.07781C2.8183 7.84992 2.80099 7.62941 2.79929 7.41119ZM2.79519 7.32389L2.79557 7.32832C2.79523 7.32406 2.79502 7.32186 2.79505 7.32223L2.79519 7.32389Z" fill="black"/>
<path fill-rule="evenodd" clip-rule="evenodd" d="M8.198 6.79932C7.86769 6.79932 7.599 7.06719 7.599 7.39932C7.599 7.73085 7.8681 7.99932 8.198 7.99932C8.52871 7.99932 8.798 7.73003 8.798 7.39932C8.798 7.06801 8.52912 6.79932 8.198 6.79932ZM5.599 7.39932C5.599 5.96344 6.76231 4.79932 8.198 4.79932C9.63288 4.79932 10.798 5.96262 10.798 7.39932C10.798 8.8346 9.63328 9.99932 8.198 9.99932C6.7619 9.99932 5.599 8.83379 5.599 7.39932Z" fill="black"/>
</svg>
