<svg width="22" height="27" viewBox="0 0 22 27" fill="none" xmlns="http://www.w3.org/2000/svg">
<path fill-rule="evenodd" clip-rule="evenodd" d="M11.0457 2.00049C7.26941 2.00049 4.19125 5.09461 4.19125 8.93431C4.19125 12.7727 7.26953 15.8681 11.0457 15.8681C14.8213 15.8681 17.9002 12.7726 17.9002 8.93431C17.9002 5.09467 14.8214 2.00049 11.0457 2.00049ZM2.19125 8.93431C2.19125 4.00892 6.14606 0.000488281 11.0457 0.000488281C15.9446 0.000488281 19.9002 4.00886 19.9002 8.93431C19.9002 13.8582 15.9447 17.8681 11.0457 17.8681C6.14594 17.8681 2.19125 13.8581 2.19125 8.93431Z" fill="black"/>
<path fill-rule="evenodd" clip-rule="evenodd" d="M11.0459 5.17334C9.00469 5.17334 7.33273 6.84713 7.33273 8.93407C7.33273 11.0195 9.00469 12.6941 11.0459 12.6941C13.0862 12.6941 14.7583 11.0196 14.7583 8.93407C14.7583 6.84703 13.0862 5.17334 11.0459 5.17334ZM5.33273 8.93407C5.33273 5.76136 7.88142 3.17334 11.0459 3.17334C14.2097 3.17334 16.7583 5.76146 16.7583 8.93407C16.7583 12.1052 14.2097 14.6941 11.0459 14.6941C7.88142 14.6941 5.33273 12.1053 5.33273 8.93407Z" fill="black"/>
<path fill-rule="evenodd" clip-rule="evenodd" d="M4.50838 14.1157L6.36518 14.8589L3.96491 20.8559L6.27315 20.5669L7.645 22.2692L9.61086 16.5416L11.5025 17.1909L8.36072 26.3447L5.41544 22.6899L0.847687 23.2619L4.50838 14.1157Z" fill="black"/>
<path fill-rule="evenodd" clip-rule="evenodd" d="M18.1276 20.856L15.7268 14.859L17.5835 14.1157L21.2451 23.262L16.6772 22.69L13.7319 26.3448L10.5901 17.1909L12.4818 16.5417L14.4477 22.2693L15.8195 20.567L18.1276 20.856Z" fill="black"/>
</svg>
