<svg width="32" height="30" viewBox="0 0 32 30" fill="none" xmlns="http://www.w3.org/2000/svg">
<path fill-rule="evenodd" clip-rule="evenodd" d="M0.790771 25.313C0.790771 23.0998 2.46876 21.1709 4.69905 21.1709C6.9278 21.1709 8.60732 23.0995 8.60732 25.313C8.60732 27.5261 6.92767 29.4545 4.69905 29.4545C2.46889 29.4545 0.790771 27.5258 0.790771 25.313ZM4.69905 23.1709C3.71633 23.1709 2.79077 24.0557 2.79077 25.313C2.79077 26.5696 3.71619 27.4545 4.69905 27.4545C5.68091 27.4545 6.60732 26.5693 6.60732 25.313C6.60732 24.056 5.68078 23.1709 4.69905 23.1709Z" fill="white"/>
<path fill-rule="evenodd" clip-rule="evenodd" d="M24.1834 4.14146C24.1834 1.92872 25.8615 0 28.0917 0C30.3203 0 32 1.92842 32 4.14146C32 6.35504 30.3204 8.28361 28.0917 8.28361C25.8614 8.28361 24.1834 6.35475 24.1834 4.14146ZM28.0917 2C27.1088 2 26.1834 2.88494 26.1834 4.14146C26.1834 5.39881 27.109 6.28361 28.0917 6.28361C29.0734 6.28361 30 5.39852 30 4.14146C30 2.88523 29.0736 2 28.0917 2Z" fill="white"/>
<path fill-rule="evenodd" clip-rule="evenodd" d="M12.4241 14.6586C12.4241 12.4458 14.1023 10.5171 16.3324 10.5171C18.561 10.5171 20.2407 12.4455 20.2407 14.6586C20.2407 16.8716 18.561 18.8 16.3324 18.8C14.1023 18.8 12.4241 16.8713 12.4241 14.6586ZM16.3324 12.5171C15.3496 12.5171 14.4241 13.402 14.4241 14.6586C14.4241 15.9151 15.3496 16.8 16.3324 16.8C17.3143 16.8 18.2407 15.9148 18.2407 14.6586C18.2407 13.4023 17.3143 12.5171 16.3324 12.5171Z" fill="white"/>
<path fill-rule="evenodd" clip-rule="evenodd" d="M4.69934 0.0454102C5.25163 0.0454102 5.69934 0.493125 5.69934 1.04541V22.0338C5.69934 22.5861 5.25163 23.0338 4.69934 23.0338C4.14706 23.0338 3.69934 22.5861 3.69934 22.0338V1.04541C3.69934 0.493125 4.14706 0.0454102 4.69934 0.0454102Z" fill="white"/>
<path fill-rule="evenodd" clip-rule="evenodd" d="M16.3323 16.8003C16.8846 16.8003 17.3323 17.248 17.3323 17.8003V28.2716C17.3323 28.8239 16.8846 29.2716 16.3323 29.2716C15.78 29.2716 15.3323 28.8239 15.3323 28.2716V17.8003C15.3323 17.248 15.78 16.8003 16.3323 16.8003Z" fill="white"/>
<path fill-rule="evenodd" clip-rule="evenodd" d="M16.3323 0.0454102C16.8846 0.0454102 17.3323 0.493125 17.3323 1.04541V11.5174C17.3323 12.0697 16.8846 12.5174 16.3323 12.5174C15.78 12.5174 15.3323 12.0697 15.3323 11.5174V1.04541C15.3323 0.493125 15.78 0.0454102 16.3323 0.0454102Z" fill="white"/>
<path fill-rule="evenodd" clip-rule="evenodd" d="M27.9656 6.2832C28.5179 6.2832 28.9656 6.73092 28.9656 7.2832V28.2716C28.9656 28.8239 28.5179 29.2716 27.9656 29.2716C27.4134 29.2716 26.9656 28.8239 26.9656 28.2716V7.2832C26.9656 6.73092 27.4134 6.2832 27.9656 6.2832Z" fill="white"/>
</svg>
