<svg width="17" height="34" viewBox="0 0 17 34" fill="none" xmlns="http://www.w3.org/2000/svg">
<path fill-rule="evenodd" clip-rule="evenodd" d="M8.5 13C9.05228 13 9.5 13.4477 9.5 14V22.5212C9.5 23.0735 9.05228 23.5212 8.5 23.5212C7.94772 23.5212 7.5 23.0735 7.5 22.5212V14C7.5 13.4477 7.94772 13 8.5 13Z" fill="white"/>
<path fill-rule="evenodd" clip-rule="evenodd" d="M3.21429 5.26272C3.21429 2.35093 5.58565 0 8.5 0C11.4143 0 13.7857 2.35093 13.7857 5.26272V18.8896C15.7395 20.4364 17 22.8236 17 25.5092C17 30.1872 13.1901 33.969 8.5 33.969C3.80994 33.969 0 30.1872 0 25.5092C0 22.8236 1.26052 20.4364 3.21429 18.8896V5.26272ZM8.5 2C6.68006 2 5.21429 3.46563 5.21429 5.26272V19.9152L4.78475 20.2135C3.09848 21.3848 2 23.3199 2 25.5092C2 29.0725 4.90435 31.969 8.5 31.969C12.0957 31.969 15 29.0725 15 25.5092C15 23.3199 13.9015 21.3848 12.2153 20.2135L11.7857 19.9152V5.26272C11.7857 3.46563 10.3199 2 8.5 2Z" fill="white"/>
<path fill-rule="evenodd" clip-rule="evenodd" d="M8.71429 23.9946C7.7626 23.9946 7 24.7609 7 25.6944C7 26.6278 7.7626 27.3941 8.71429 27.3941C9.66597 27.3941 10.4286 26.6278 10.4286 25.6944C10.4286 24.7609 9.66597 23.9946 8.71429 23.9946ZM5 25.6944C5 23.6462 6.66819 21.9946 8.71429 21.9946C10.7604 21.9946 12.4286 23.6462 12.4286 25.6944C12.4286 27.7425 10.7604 29.3941 8.71429 29.3941C6.66819 29.3941 5 27.7425 5 25.6944Z" fill="white"/>
</svg>
